<svg width="28" height="28" viewBox="0 0 28 28" fill="none" xmlns="http://www.w3.org/2000/svg">
<path d="M3.5 8.16668V5.83334H5.83333V4.66668C5.83333 4.04784 6.07917 3.45435 6.51675 3.01676C6.95434 2.57918 7.54783 2.33334 8.16667 2.33334H15.1667V10.5L18.0833 8.75001L21 10.5V2.33334H22.1667C23.3917 2.33334 24.5 3.44168 24.5 4.66668V23.3333C24.5 24.5583 23.3917 25.6667 22.1667 25.6667H8.16667C6.94167 25.6667 5.83333 24.5583 5.83333 23.3333V22.1667H3.5V19.8333H5.83333V15.1667H3.5V12.8333H5.83333V8.16668H3.5ZM8.16667 12.8333H5.83333V15.1667H8.16667V12.8333ZM8.16667 8.16668V5.83334H5.83333V8.16668H8.16667ZM8.16667 22.1667V19.8333H5.83333V22.1667H8.16667Z" fill="black"/>
</svg>
