<svg width="28" height="28" viewBox="0 0 28 28" fill="none" xmlns="http://www.w3.org/2000/svg">
<path d="M4.66666 23.3333C4.02499 23.3333 3.47588 23.105 3.01933 22.6485C2.56277 22.1919 2.33411 21.6424 2.33333 21V6.99999C2.33333 6.35832 2.56199 5.80921 3.01933 5.35266C3.47666 4.8961 4.02577 4.66743 4.66666 4.66666H23.3333C23.975 4.66666 24.5245 4.89532 24.9818 5.35266C25.4392 5.80999 25.6674 6.3591 25.6667 6.99999V21C25.6667 21.6417 25.4384 22.1912 24.9818 22.6485C24.5253 23.1058 23.9758 23.3341 23.3333 23.3333H4.66666ZM14 15.1667L4.66666 9.33332V21H23.3333V9.33332L14 15.1667ZM14 12.8333L23.3333 6.99999H4.66666L14 12.8333ZM4.66666 9.33332V6.99999V21V9.33332Z" fill="black"/>
</svg>
